<?xml version="1.0" encoding="UTF-8" standalone="no"?>
<svg
   xmlns:dc="http://purl.org/dc/elements/1.1/"
   xmlns:cc="http://creativecommons.org/ns#"
   xmlns:rdf="http://www.w3.org/1999/02/22-rdf-syntax-ns#"
   xmlns:svg="http://www.w3.org/2000/svg"
   xmlns="http://www.w3.org/2000/svg"
   xmlns:sodipodi="http://sodipodi.sourceforge.net/DTD/sodipodi-0.dtd"
   xmlns:inkscape="http://www.inkscape.org/namespaces/inkscape"
   viewBox="0 0 24 24"
   version="1.1"
   id="svg4"
   sodipodi:docname="blog-header.svg"
   inkscape:version="0.92.1 unknown">
  <metadata
     id="metadata10">
    <rdf:RDF>
      <cc:Work
         rdf:about="">
        <dc:format>image/svg+xml</dc:format>
        <dc:type
           rdf:resource="http://purl.org/dc/dcmitype/StillImage" />
        <dc:title></dc:title>
      </cc:Work>
    </rdf:RDF>
  </metadata>
  <defs
     id="defs8" />
  <sodipodi:namedview
     pagecolor="#ffffff"
     bordercolor="#666666"
     borderopacity="1"
     objecttolerance="10"
     gridtolerance="10"
     guidetolerance="10"
     inkscape:pageopacity="0"
     inkscape:pageshadow="2"
     inkscape:window-width="1920"
     inkscape:window-height="1025"
     id="namedview6"
     showgrid="false"
     inkscape:zoom="9.8333333"
     inkscape:cx="-1.2711864"
     inkscape:cy="12"
     inkscape:window-x="1366"
     inkscape:window-y="30"
     inkscape:window-maximized="1"
     inkscape:current-layer="svg4" />
  <path
     d="M 6 2 L 6 3 L 6 5 L 6 10 L 8 14 L 10 10 L 10 5 L 20 5 L 20 14 L 8 14 L 9.96875 16.125 L 9.65625 16.34375 L 7 18.1875 L 7 18 L 7 16 L 5 16 L 4 16 L 4 5 L 5 5 L 5 3 L 4 3 C 2.895 3 2 3.895 2 5 L 2 16 C 2 17.105 2.895 18 4 18 L 5 18 L 5 22 L 10.8125 18 L 20 18 C 21.105 18 22 17.105 22 16 L 22 5 C 22 3.895 21.105 3 20 3 L 10 3 L 10 2 L 6 2 z M 8 9 L 9.34375 9.6875 L 8.71875 11 L 7.28125 11 L 6.65625 9.65625 L 8 9 z"
     id="path2"
     style="fill:#8994a0;fill-opacity:1" />
</svg>
