<svg xmlns="http://www.w3.org/2000/svg" viewBox="3711 152 60 50.995">
    <defs>
        <style>
            .cls-1{fill:#08d184}
        </style>
    </defs>
    <g id="Group_405" data-name="Group 405" transform="translate(3710.984 152)">
        <path id="XMLID_15_" d="M16.015 21.9H49.45a1.143 1.143 0 0 0 .962-.481 1.216 1.216 0 0 0 .241-1.042L47.125 6.984A2.31 2.31 0 0 0 44.96 5.3H20.585a2.238 2.238 0 0 0-2.165 1.684l-3.528 13.39a1.216 1.216 0 0 0 .241 1.042 1.006 1.006 0 0 0 .882.484zm21.649-2.405h-3.208a4.766 4.766 0 0 1 3.207-3.207zm2.405 0v-3.21a4.479 4.479 0 0 1 3.207 3.207zM20.666 7.705H44.8l3.127 11.786h-2.165a7 7 0 0 0-13.791 0H17.539z" class="cls-1" transform="translate(-2.943 -1.05)"/>
        <path id="XMLID_12_" d="M8.788 42.277a3.678 3.678 0 0 0 3.688-3.688A3.731 3.731 0 0 0 8.788 34.9a3.688 3.688 0 1 0 0 7.377zm0-4.971a1.283 1.283 0 1 1-1.283 1.283 1.22 1.22 0 0 1 1.283-1.284z" class="cls-1" transform="translate(-1.008 -6.917)"/>
        <path id="XMLID_9_" d="M64.588 42.277a3.678 3.678 0 0 0 3.688-3.688 3.731 3.731 0 0 0-3.688-3.689 3.688 3.688 0 1 0 0 7.377zm0-4.971a1.283 1.283 0 1 1-1.283 1.283 1.22 1.22 0 0 1 1.283-1.284z" class="cls-1" transform="translate(-12.067 -6.917)"/>
        <path id="XMLID_1_" d="M1.206 39.93a4.677 4.677 0 0 0 4.089 3.77l.4 4.65a3.061 3.061 0 0 0 3.127 2.646h3.128a3.2 3.2 0 0 0 2.405-1.042 2.586 2.586 0 0 0 .722-2.085l-.4-4.089h4.089v.962a1.233 1.233 0 0 0 1.2 1.2h20.127a1.233 1.233 0 0 0 1.2-1.2v-.962H44.9l-.4 4.089a2.5 2.5 0 0 0 .722 2.085 3.2 3.2 0 0 0 2.405 1.042h3.127a3.061 3.061 0 0 0 3.127-2.646l.4-4.57a4.646 4.646 0 0 0 4.57-3.768l.962-5.212a10.6 10.6 0 0 0-3.283-10.1 8.578 8.578 0 0 0-3.768-1.764L48.191 4.811A6.428 6.428 0 0 0 41.937 0H17.643a6.449 6.449 0 0 0-6.254 4.811l-4.811 18.2a8.553 8.553 0 0 0-3.047 1.6 10.484 10.484 0 0 0-3.287 10.1zm11.546 8.178a.3.3 0 0 1-.08.241.91.91 0 0 1-.641.241H8.9c-.4 0-.722-.241-.722-.481l-.4-4.41h4.57zm26.219-4.65h-17.72v-4.09h17.72v4.089zm12.668 4.65c0 .241-.321.481-.722.481H47.79a.91.91 0 0 1-.641-.241.3.3 0 0 1-.08-.241l.4-4.33h4.57zM13.714 5.452a4.114 4.114 0 0 1 3.929-3.047h24.294a4.114 4.114 0 0 1 3.929 3.047l4.49 17.239H9.224zM47.63 25.1a6.267 6.267 0 0 1-5.051 2.646H16.761a6.155 6.155 0 0 1-5.052-2.646zM5.054 26.459a6 6 0 0 1 2.806-1.283 5.294 5.294 0 0 1 1.123-.08 8.573 8.573 0 0 0 7.858 5.051h25.818a8.659 8.659 0 0 0 7.857-5.047h1.444a6.294 6.294 0 0 1 3.287 1.363 8.108 8.108 0 0 1 2.486 7.777l-.962 5.212a2.317 2.317 0 0 1-2.245 1.844h-12.99v-3.13a1.233 1.233 0 0 0-1.2-1.2H20.048a1.233 1.233 0 0 0-1.2 1.2v3.127H5.776a2.317 2.317 0 0 1-2.245-1.844l-.962-5.212a8.233 8.233 0 0 1 2.485-7.778z" class="cls-1"/>
    </g>
</svg>
