<svg xmlns="http://www.w3.org/2000/svg" viewBox="1094.299 1566.571 83.028 83.028">
    <defs>
        <style>
            .cls-1{fill:#4088da}.cls-2{fill:#fff}
        </style>
    </defs>
    <g id="Group_208" data-name="Group 208" transform="translate(921 1176)">
        <g id="Group_206" data-name="Group 206" transform="translate(-423.345 -158.345)">
            <g id="Group_203" data-name="Group 203" transform="translate(596.644 548.916)">
                <path id="Path_196" d="M36.184 0a36.3 36.3 0 0 1 32.189 19.639 35.712 35.712 0 0 1 4 16.545A36.184 36.184 0 1 1 36.184 0z" class="cls-1" data-name="Path 196" transform="rotate(-9.218 71.902 5.797)"/>
            </g>
            <path id="Path_199" d="M1325.874 167.192a14.4 14.4 0 0 1-.909 5.179 8.812 8.812 0 0 1-2.5 3.68 5.831 5.831 0 0 1-3.725 1.317 4.6 4.6 0 0 1-2.726-.818 4.03 4.03 0 0 1-1.545-2.272h-.227a6.176 6.176 0 0 1-2.408 2.317 6.9 6.9 0 0 1-3.226.772 6.419 6.419 0 0 1-5.088-2.09 8.256 8.256 0 0 1-1.863-5.633 9.131 9.131 0 0 1 2.453-6.633 8.865 8.865 0 0 1 6.633-2.544 23.263 23.263 0 0 1 3.362.273 19.461 19.461 0 0 1 3.271.727l-.454 9.222v.454c0 2.135.681 3.18 2.044 3.18 1.045 0 1.863-.681 2.5-2.044a12.307 12.307 0 0 0 .909-5.179 11.891 11.891 0 0 0-1.408-5.951 9.222 9.222 0 0 0-3.952-3.952 12.413 12.413 0 0 0-5.861-1.408 15.189 15.189 0 0 0-7.36 1.726 11.524 11.524 0 0 0-4.77 5 16.6 16.6 0 0 0-1.635 7.542c0 3.816 1.045 6.769 3.089 8.859 2.044 2.044 5 3.089 8.814 3.089a26.014 26.014 0 0 0 9.132-1.772v3.267a23.8 23.8 0 0 1-9.086 1.726q-7.36 0-11.449-3.952t-4.089-11.04a18.6 18.6 0 0 1 2.226-9.222 15.267 15.267 0 0 1 6.179-6.179 18.559 18.559 0 0 1 8.9-2.135 16.219 16.219 0 0 1 7.678 1.772 12.808 12.808 0 0 1 5.224 5.088 15.564 15.564 0 0 1 1.867 7.634zm-20.444 2.544c0 3.089 1.227 4.634 3.635 4.634 2.544 0 3.952-1.954 4.18-5.815l.227-4.725a10.087 10.087 0 0 0-2.68-.318 4.867 4.867 0 0 0-3.952 1.681 6.79 6.79 0 0 0-1.41 4.544z" class="cls-2" data-name="Path 199" transform="translate(-671.938 421.176)"/>
        </g>
    </g>
</svg>
