<svg xmlns="http://www.w3.org/2000/svg" width="41" height="34" viewBox="0 0 41 34">
    <g fill="none" fill-rule="evenodd" stroke="#FFFFFF" stroke-width="2">
        <path d="M39.373 13.113l-3.12 3.12L24.739 4.716l3.12-3.12zM15.983 14.85l9.359-9.359 9.697 9.698-5.303 5.303-3.637-3.636c-1.21 1.26-2.14 1.785-2.79 1.577-.649-.208-2.392-1.667-3.97-3.271"/>
        <path d="M20.279 15.403l-2.217 2.217c-.843.843-2.07.984-2.739.314-.67-.67-.529-1.895.315-2.739l3.464-3.464M13.51 2.019l3.03 3.03L4.516 17.076l-3.03-3.03z"/>
        <path d="M17.026 27.747L5.328 16.05l9.983-9.983 4.727 4.728M27.008 17.765l3.366 3.366c.82.819.924 2.041.235 2.73-.689.69-1.912.584-2.73-.235l-3.366-3.366"/>
        <path d="M24.513 20.26l3.365 3.366c.82.82.925 2.042.236 2.731-.69.69-1.912.584-2.731-.235l-3.366-3.366M22.017 22.756l3.366 3.366c.819.819.924 2.042.235 2.73-.69.69-1.912.585-2.73-.234l-3.367-3.366"/>
        <path d="M19.521 25.252l3.366 3.366c.82.819.924 2.041.235 2.73-.689.69-1.912.584-2.73-.235l-3.366-3.366"/>
        <path d="M20.41 30.424l-1.595 1.595c-.388.388-1.246.16-1.915-.51-.67-.669-.898-1.526-.51-1.914l1.596-1.596"/>
        <path d="M17.986 28l-1.595 1.595c-.389.388-1.246.16-1.916-.51-.67-.669-.897-1.526-.509-1.915l1.596-1.595"/>
        <path d="M15.562 25.575l-1.596 1.595c-.388.389-1.245.16-1.915-.509-.67-.67-.897-1.527-.51-1.915l1.596-1.596"/>
        <path d="M13.137 23.15l-1.595 1.596c-.388.388-1.246.16-1.915-.51-.67-.669-.898-1.526-.51-1.914l1.596-1.596"/>
    </g>
</svg>
