<svg xmlns="http://www.w3.org/2000/svg" viewBox="288.299 1566.571 83.028 83.028">
    <defs>
        <style>
            .cls-1{fill:#4088da}.cls-2{fill:#fff}
        </style>
    </defs>
    <g id="Group_207" data-name="Group 207" transform="translate(0 1220)">
        <g id="Group_206" data-name="Group 206" transform="translate(-423.345 -158.345)">
            <g id="Group_203" data-name="Group 203" transform="translate(711.644 504.916)">
                <path id="Path_196" d="M36.184 0a36.3 36.3 0 0 1 32.189 19.639 35.712 35.712 0 0 1 4 16.545A36.184 36.184 0 1 1 36.184 0z" class="cls-1" data-name="Path 196" transform="rotate(-9.218 71.902 5.797)"/>
            </g>
        </g>
        <path id="Path_198" d="M1024.04 56.968l-1.694-.068a2.128 2.128 0 0 0-1.423.474 7.45 7.45 0 0 0-2.507 3.8c-.61 2.643.339 5.829 2.711 9.082a26.746 26.746 0 0 0 14.573 10.568 7.385 7.385 0 0 0 6.032-.746 5.176 5.176 0 0 0 2.3-3.389l.271-1.22a.863.863 0 0 0-.474-.949l-5.625-2.575a.84.84 0 0 0-1.016.271l-2.237 2.846a.65.65 0 0 1-.678.2 17.374 17.374 0 0 1-9.353-8 .61.61 0 0 1 .068-.678l2.1-2.44a.852.852 0 0 0 .135-.881l-2.44-5.693a.777.777 0 0 0-.745-.61zm0 0" class="cls-2" data-name="Path 198" transform="translate(-701.084 319.135)"/>
    </g>
</svg>
