<?xml version="1.0" encoding="UTF-8"?>
<svg width="19px" height="18px" viewBox="0 0 19 18" version="1.1" xmlns="http://www.w3.org/2000/svg" xmlns:xlink="http://www.w3.org/1999/xlink">
    <!-- Generator: Sketch 43.1 (39012) - http://www.bohemiancoding.com/sketch -->
    <title>telephone</title>
    <desc>Created with Sketch.</desc>
    <defs></defs>
    <g id="Diseños" stroke="none" stroke-width="1" fill="none" fill-rule="evenodd">
        <g id="Sector-seguros-2" transform="translate(-626.000000, -652.000000)" fill="#EF4039">
            <g id="telefono" transform="translate(618.000000, 625.000000)">
                <g id="telephone" transform="translate(8.500000, 27.000000)">
                    <g id="Capa_1">
                        <path d="M17.3632825,13.0008247 C16.6098804,12.24 15.8564784,11.4903093 15.1253443,10.7665979 C14.7282309,10.3731959 14.2643134,10.1653608 13.7781278,10.1653608 C13.2919423,10.1653608 12.8280247,10.3731959 12.4346227,10.7628866 L12.3344165,10.8630928 C11.9373031,11.2564948 11.5253443,11.6647423 11.1282309,12.0729897 C11.0465814,12.0321649 10.964932,11.9913402 10.8869938,11.9505155 C10.7051381,11.8614433 10.5307052,11.7760825 10.3785402,11.6795876 C9.18348866,10.9298969 8.08493196,9.93154639 7.02348866,8.6214433 C6.50761237,7.98680412 6.14761237,7.42268041 5.89524124,6.85113402 C6.24781856,6.50969072 6.5929732,6.16082474 6.93070515,5.81938144 C7.01606598,5.73402062 7.10513814,5.64494845 7.19049897,5.55958763 C8.01812784,4.72824742 8.01441649,3.65195876 7.18678763,2.81690722 C6.93441649,2.56082474 6.67462268,2.30474227 6.42596289,2.05608247 C6.31462268,1.94474227 6.20328247,1.83340206 6.09194227,1.72206186 C5.97317938,1.60329897 5.85812784,1.48824742 5.73936495,1.36948454 C5.48699381,1.11340206 5.22348866,0.849896907 4.95998351,0.593814433 C4.5628701,0.204123711 4.09524124,0 3.61276701,0 C3.13029278,0 2.66266392,0.204123711 2.26926186,0.593814433 C2.07998351,0.783092784 1.88699381,0.972371134 1.70513814,1.15793814 C1.43792165,1.42886598 1.15957113,1.70721649 0.881220619,1.97443299 C0.36163299,2.46804124 0.0721484536,3.09154639 0.0164783505,3.83010309 C-0.0688824742,4.99175258 0.254004124,6.04206186 0.54348866,6.82886598 C1.20410722,8.60659794 2.21359175,10.2915464 3.63132371,11.9802062 C5.39792165,14.0808247 7.52451959,15.7435052 9.95173608,16.9274227 C11.2878186,17.5769072 12.4346227,17.9072165 13.5517361,17.9703093 C13.6333856,17.9740206 13.7150351,17.977732 13.7929732,17.977732 C14.7356536,17.977732 15.5113237,17.6437113 16.0977155,16.9905155 C16.3500866,16.7084536 16.6210144,16.4449485 16.9067876,16.1665979 C17.0515299,16.025567 17.1999835,15.8808247 17.3484371,15.7323711 C18.1797773,14.8973196 18.1834887,13.8284536 17.3632825,13.0008247 Z M16.6432825,15.0272165 C16.5022515,15.1682474 16.3575093,15.3092784 16.2164784,15.4503093 C15.9307052,15.7286598 15.6337979,16.0181443 15.3591588,16.3261856 C14.924932,16.8123711 14.3756536,17.0164948 13.6148289,16.9756701 C12.6313237,16.92 11.6107052,16.6230928 10.3970969,16.0329897 C8.09606598,14.9121649 6.07709691,13.3348454 4.40328247,11.345567 C3.05977732,9.74597938 2.10596289,8.16123711 1.48616907,6.49113402 C1.10390103,5.46680412 0.962870103,4.67257732 1.01854021,3.91917526 C1.05565361,3.43298969 1.23750928,3.03587629 1.57524124,2.71670103 C1.86101443,2.43092784 2.14307629,2.14515464 2.41771546,1.87051546 C2.59957113,1.68865979 2.78513814,1.49938144 2.97070515,1.31381443 C3.11173608,1.17278351 3.33812784,1.0057732 3.61276701,1.0057732 C3.88740619,1.0057732 4.11379794,1.17278351 4.25854021,1.31381443 C4.51462268,1.56618557 4.77812784,1.82969072 5.02678763,2.08206186 C5.14555052,2.20082474 5.26060206,2.31958763 5.37936495,2.43463918 C5.49070515,2.54597938 5.60204536,2.65731959 5.71338557,2.76865979 C5.96204536,3.01731959 6.21812784,3.27340206 6.47049897,3.5257732 C6.91585979,3.97484536 6.91957113,4.40907216 6.47421031,4.85443299 C6.38884948,4.94350515 6.29977732,5.02886598 6.21441649,5.11793814 C5.85441649,5.48164948 5.47957113,5.86020619 5.10472577,6.22020619 C4.91915876,6.39835052 4.73730309,6.70268041 4.91915876,7.14061856 C5.2086433,7.83463918 5.62802474,8.51010309 6.23668454,9.25979381 C7.3686433,10.6515464 8.54884948,11.7241237 9.83668454,12.5331959 C10.0370969,12.6593814 10.2412206,12.7595876 10.4379216,12.8560825 C10.5566845,12.9117526 10.6643134,12.9674227 10.7719423,13.0268041 C10.9055505,13.1010309 11.0391588,13.134433 11.172767,13.134433 L11.172767,13.134433 C11.3843134,13.134433 11.5810144,13.0416495 11.7554474,12.8635052 C12.1748289,12.4292784 12.612767,11.9987629 13.0321485,11.5793814 L13.1323546,11.4791753 C13.2733856,11.3381443 13.4997773,11.171134 13.7707052,11.171134 C14.041633,11.171134 14.2680247,11.3381443 14.412767,11.4791753 C15.1401897,12.2028866 15.8935918,12.9525773 16.6432825,13.7096907 C17.0775093,14.1364948 17.0737979,14.5929897 16.6432825,15.0272165 Z" id="Shape"></path>
                    </g>
                </g>
            </g>
        </g>
    </g>
</svg>