<svg xmlns="http://www.w3.org/2000/svg" viewBox="5224 150 53.828 53.745">
    <defs>
        <style>
            .cls-1{fill:#08d184}
        </style>
    </defs>
    <g id="Group_407" data-name="Group 407" transform="translate(5224 150)">
        <path id="XMLID_2_" d="M26.872 0A26.925 26.925 0 0 0 0 26.872a26.5 26.5 0 0 0 2.067 10.336v.083a.289.289 0 0 0 .083.165c.165.413.413.91.579 1.323.165.248.248.5.413.744.083.248.248.413.331.661a19.781 19.781 0 0 0 1.075 1.736.081.081 0 0 0 .082.08 26.6 26.6 0 0 0 11.576 9.6 1.4 1.4 0 0 0 .413.165 4.031 4.031 0 0 0 .91.331c.331.083.661.248.992.331s.661.165.91.248a5.348 5.348 0 0 1 1.075.325c.165.083.413.083.579.165.579.083 1.075.248 1.654.331h.248a10.131 10.131 0 0 0 1.571.165h.5c.579 0 1.158.083 1.819.083a13.4 13.4 0 0 0 1.819-.083h.5c.5-.083 1.075-.083 1.571-.165h.248a11.707 11.707 0 0 0 1.654-.331c.165-.083.413-.083.579-.165a5.348 5.348 0 0 0 1.075-.331 4.662 4.662 0 0 0 .992-.331c.331-.083.661-.248.992-.331s.661-.248.91-.331c.165-.083.248-.083.413-.165a26.791 26.791 0 0 0 11.57-9.673 13.16 13.16 0 0 0 1.075-1.819c.083-.165.248-.413.331-.579.165-.248.248-.5.413-.744.165-.413.413-.827.579-1.24 0-.083.083-.165.165-.248v-.083A26.8 26.8 0 0 0 26.872 0zm0 2.481a24.437 24.437 0 0 1 24.392 24.391 25.254 25.254 0 0 1-1.571 8.682H17.116l-3.06-8.354a1.229 1.229 0 1 0-2.315.827l2.729 7.442H4.052a24.1 24.1 0 0 1-1.571-8.6A24.49 24.49 0 0 1 26.872 2.481zm21.581 35.967a.627.627 0 0 0-.165.331 25.034 25.034 0 0 1-10.749 10.17h-.083a30.146 30.146 0 0 1-2.894 1.158 1.946 1.946 0 0 1-.661.165 2.556 2.556 0 0 1-.661.165c-.331.083-.579.165-.91.248-.165 0-.331.083-.5.083-.5.083-.91.165-1.406.248a.745.745 0 0 0-.413.083 5.459 5.459 0 0 1-1.158.083h-.413c-.5 0-.992.083-1.571.083a10.543 10.543 0 0 1-1.571-.083h-.413c-.413 0-.744-.083-1.158-.083a.745.745 0 0 1-.413-.083c-.5-.083-.91-.165-1.406-.248-.165 0-.331-.083-.5-.083-.331-.083-.579-.165-.91-.248a2.556 2.556 0 0 0-.661-.165 1.946 1.946 0 0 0-.661-.165 28.562 28.562 0 0 1-2.811-1.158h-.083A24.848 24.848 0 0 1 5.54 38.862a.627.627 0 0 1-.165-.331c-.083-.165-.165-.248-.165-.413H48.7c-.164.082-.164.165-.247.33z" class="cls-1"/>
        <path id="XMLID_1_" d="M9.083 19.244l1.736 4.713a1.244 1.244 0 0 0 1.158.827.745.745 0 0 0 .413-.083 1.225 1.225 0 0 0 .744-1.571l-.248-.579a38 38 0 0 1 14.3-3.307v1.24a1.24 1.24 0 1 0 2.481 0v-1.24a45.015 45.015 0 0 1 14.47 2.811l-.327 1.075a1.2 1.2 0 0 0 .744 1.571.745.745 0 0 0 .413.083 1.244 1.244 0 0 0 1.158-.827l1.736-4.713a1.229 1.229 0 0 0-2.315-.827l-.5 1.406a48.358 48.358 0 0 0-15.3-2.977V15.44a1.24 1.24 0 1 0-2.481 0v1.406a38.853 38.853 0 0 0-15.131 3.473l-.653-1.819a1.225 1.225 0 0 0-1.571-.744 1.057 1.057 0 0 0-.827 1.488z" class="cls-1" transform="translate(-1.559 -2.459)"/>
    </g>
</svg>
