<svg xmlns="http://www.w3.org/2000/svg" viewBox="675.729 1526.001 116.168 116.168">
    <defs>
        <style>
            .cls-1{fill:#08d184}.cls-2{fill:#fff}
        </style>
    </defs>
    <g id="Group_205" data-name="Group 205" transform="translate(-22.345 1041.655)">
        <g id="Group_203" data-name="Group 203" transform="translate(698.074 484.347)">
            <path id="Path_196" d="M50.627 0a50.789 50.789 0 0 1 45.036 27.478 49.965 49.965 0 0 1 5.59 23.149A50.627 50.627 0 1 1 50.627 0z" class="cls-1" data-name="Path 196" transform="rotate(-9.218 100.606 8.11)"/>
        </g>
        <g id="Group_204" data-name="Group 204" transform="translate(730.799 516.758)">
            <path id="Path_193" d="M999.5 88.172l3.592-12.741a25.635 25.635 0 1 1 22.094 12.606 25.985 25.985 0 0 1-12.538-3.253zm13.826-8.065l.813.474a21.264 21.264 0 1 0-10.234-18.163 20.787 20.787 0 0 0 3.389 11.454l.542.813-2.1 7.32zm0 0" class="cls-2" data-name="Path 193" transform="translate(-999.5 -36.8)"/>
            <path id="Path_194" d="M1024.04 56.968l-1.694-.068a2.128 2.128 0 0 0-1.423.474 7.45 7.45 0 0 0-2.507 3.8c-.61 2.643.339 5.829 2.711 9.082a26.746 26.746 0 0 0 14.573 10.568 7.385 7.385 0 0 0 6.032-.746 5.176 5.176 0 0 0 2.3-3.389l.271-1.22a.863.863 0 0 0-.474-.949l-5.625-2.575a.84.84 0 0 0-1.016.271l-2.237 2.846a.65.65 0 0 1-.678.2 17.374 17.374 0 0 1-9.353-8 .61.61 0 0 1 .068-.678l2.1-2.44a.852.852 0 0 0 .135-.881l-2.44-5.693a.777.777 0 0 0-.745-.61zm0 0" class="cls-2" data-name="Path 194" transform="translate(-1005.538 -43.278)"/>
        </g>
    </g>
</svg>
