<svg xmlns="http://www.w3.org/2000/svg" viewBox="2203 143 56.554 68.523">
    <defs>
        <style>
            .cls-1{fill:#08d184}
        </style>
    </defs>
    <path id="XMLID_1_" d="M37.159 22.66l-1.813 4.985a40.433 40.433 0 0 0-2.538 13.415l-.181 9.97-12.055-1.178A47.262 47.262 0 0 0 8.7 50.3l-3.354.634A6.938 6.938 0 0 0 .9 53.93a6.522 6.522 0 0 0-.634 5.348l1.088 3.444a8.3 8.3 0 0 0 7.976 5.8h27.557a9.006 9.006 0 0 0 8.7-6.707l6.254-22.841a59.079 59.079 0 0 1 3.9-10.333 7.569 7.569 0 0 0-.363-7.342 7.76 7.76 0 0 0-4.532-3.354h-.272l-.453-2.9a5.037 5.037 0 0 0 2.447-1.9 5.364 5.364 0 0 0 .725-4.8l-1.541-4.719A5.365 5.365 0 0 0 46.676 0h-5.62a5.252 5.252 0 0 0-4.351 2.266 5.323 5.323 0 0 0-.725 4.8l1.632 4.8a5.365 5.365 0 0 0 5.076 3.634h.091l.363 2.447a7.489 7.489 0 0 0-5.983 4.713zm15.953.091a4.468 4.468 0 0 1 .181 4.623 57.382 57.382 0 0 0-4.079 10.786l-6.163 23.022a6.309 6.309 0 0 1-6.073 4.618H9.333a5.548 5.548 0 0 1-5.348-3.9L2.9 58.462a3.7 3.7 0 0 1 .363-3.082A3.633 3.633 0 0 1 5.8 53.659l3.354-.634a38.53 38.53 0 0 1 7.246-.635c1.269 0 2.538.091 3.9.181l13.505 1.269a8.8 8.8 0 0 1 5.438 2.629 1.456 1.456 0 0 0 1 .453 1.164 1.164 0 0 0 .906-.363 1.4 1.4 0 0 0 .091-1.9 12.489 12.489 0 0 0-5.892-3.172l.181-10.333a39.211 39.211 0 0 1 2.357-12.508l1.9-4.985a4.806 4.806 0 0 1 4.532-3.082h4.352l-.906 1.994a56.929 56.929 0 0 0-3.807 11.692l-.544 2.535a1.344 1.344 0 0 0 1.087 1.631h.272a1.444 1.444 0 0 0 1.36-1.088l.544-2.538A55.229 55.229 0 0 1 50.3 23.657l1.088-2.538a4.9 4.9 0 0 1 1.724 1.631zM40.15 10.967l-1.632-4.8a2.464 2.464 0 0 1 .363-2.357 2.584 2.584 0 0 1 2.175-1.088h2.9l1.269 3.626a1.363 1.363 0 0 0 1.269.906.817.817 0 0 0 .453-.091 1.28 1.28 0 0 0 .816-1.722l-1-2.719a2.622 2.622 0 0 1 2.357 1.813l1.632 4.8a2.464 2.464 0 0 1-.363 2.357 2.584 2.584 0 0 1-2.175 1.088H42.6a2.612 2.612 0 0 1-2.45-1.813zm7.342 4.533l.363 2.357h-1.994L45.5 15.5z" class="cls-1" transform="translate(2203.033 143)"/>
</svg>
